# xmcd
#
# Track frame offsets: 
#        150
#        16131
#        29103
#        43379
#        57862
#        74018
#        91515
#        106836
#        122940
#        135358
#        150650
#
# Disc length: 2189 seconds
#
# Revision: 0
# Processed by: cddbd v1.5.2PL0 Copyright (c) Steve Scherf et al.
# Submitted via: ExactAudioCopyFreeDBPlugin 1.0
#
DISCID=91088b0b
DTITLE=Berkay - İz
DYEAR=2019
DGENRE=Pop
TTITLE0=Ayrılmam
TTITLE1=Bu Gece
TTITLE2=Deli Et Beni
TTITLE3=Yazmışsa Bozmak Olmaz
TTITLE4=Kadınım
TTITLE5=Sayenizde
TTITLE6=Bu Kız Beni Görmeli
TTITLE7=Vurur
TTITLE8=Sigarası Yaldızlı
TTITLE9=Yaz Gazeteci Yaz
TTITLE10=Dokun Bana
EXTD=
EXTT0=
EXTT1=
EXTT2=
EXTT3=
EXTT4=
EXTT5=
EXTT6=
EXTT7=
EXTT8=
EXTT9=
EXTT10=
PLAYORDER=
